<svg aria-hidden="true" style="position: absolute; width: 0; height: 0; overflow: hidden;" version="1.1" xmlns="http://www.w3.org/2000/svg" xmlns:xlink="http://www.w3.org/1999/xlink">
<defs>
<symbol id="icon-whatsapp" viewBox="0 0 24 28">
<path d="M15.391 15.219c0.266 0 2.812 1.328 2.922 1.516 0.031 0.078 0.031 0.172 0.031 0.234 0 0.391-0.125 0.828-0.266 1.188-0.359 0.875-1.813 1.437-2.703 1.437-0.75 0-2.297-0.656-2.969-0.969-2.234-1.016-3.625-2.75-4.969-4.734-0.594-0.875-1.125-1.953-1.109-3.031v-0.125c0.031-1.031 0.406-1.766 1.156-2.469 0.234-0.219 0.484-0.344 0.812-0.344 0.187 0 0.375 0.047 0.578 0.047 0.422 0 0.5 0.125 0.656 0.531 0.109 0.266 0.906 2.391 0.906 2.547 0 0.594-1.078 1.266-1.078 1.625 0 0.078 0.031 0.156 0.078 0.234 0.344 0.734 1 1.578 1.594 2.141 0.719 0.688 1.484 1.141 2.359 1.578 0.109 0.063 0.219 0.109 0.344 0.109 0.469 0 1.25-1.516 1.656-1.516zM12.219 23.5c5.406 0 9.812-4.406 9.812-9.812s-4.406-9.812-9.812-9.812-9.812 4.406-9.812 9.812c0 2.063 0.656 4.078 1.875 5.75l-1.234 3.641 3.781-1.203c1.594 1.047 3.484 1.625 5.391 1.625zM12.219 1.906c6.5 0 11.781 5.281 11.781 11.781s-5.281 11.781-11.781 11.781c-1.984 0-3.953-0.5-5.703-1.469l-6.516 2.094 2.125-6.328c-1.109-1.828-1.687-3.938-1.687-6.078 0-6.5 5.281-11.781 11.781-11.781z"></path>
</symbol>
<symbol id="icon-behance" viewBox="0 0 32 32">
<path d="M9.281 6.412c0.944 0 1.794 0.081 2.569 0.25 0.775 0.162 1.431 0.438 1.988 0.813 0.55 0.375 0.975 0.875 1.287 1.5 0.3 0.619 0.45 1.394 0.45 2.313 0 0.994-0.225 1.819-0.675 2.481-0.456 0.662-1.119 1.2-2.006 1.625 1.213 0.35 2.106 0.962 2.706 1.831 0.6 0.875 0.887 1.925 0.887 3.163 0 1-0.194 1.856-0.575 2.581-0.387 0.731-0.912 1.325-1.556 1.781-0.65 0.462-1.4 0.8-2.237 1.019-0.831 0.219-1.688 0.331-2.575 0.331h-9.544v-19.688h9.281zM8.719 14.363c0.769 0 1.406-0.181 1.906-0.55 0.5-0.363 0.738-0.963 0.738-1.787 0-0.456-0.081-0.838-0.244-1.131-0.169-0.294-0.387-0.525-0.669-0.688-0.275-0.169-0.588-0.281-0.956-0.344-0.356-0.069-0.731-0.1-1.113-0.1h-4.050v4.6h4.388zM8.956 22.744c0.425 0 0.831-0.038 1.213-0.125 0.387-0.087 0.731-0.219 1.019-0.419 0.287-0.194 0.531-0.45 0.706-0.788 0.175-0.331 0.256-0.756 0.256-1.275 0-1.012-0.287-1.738-0.856-2.175-0.569-0.431-1.325-0.644-2.262-0.644h-4.7v5.419h4.625z"></path>
<path d="M22.663 22.675c0.587 0.575 1.431 0.863 2.531 0.863 0.788 0 1.475-0.2 2.044-0.6s0.913-0.825 1.044-1.262h3.45c-0.556 1.719-1.394 2.938-2.544 3.675-1.131 0.738-2.519 1.113-4.125 1.113-1.125 0-2.131-0.181-3.038-0.538-0.906-0.363-1.663-0.869-2.3-1.531-0.619-0.663-1.106-1.45-1.45-2.375-0.337-0.919-0.512-1.938-0.512-3.038 0-1.069 0.175-2.063 0.525-2.981 0.356-0.925 0.844-1.719 1.494-2.387s1.413-1.2 2.313-1.588c0.894-0.387 1.881-0.581 2.975-0.581 1.206 0 2.262 0.231 3.169 0.706 0.9 0.469 1.644 1.1 2.225 1.887s0.994 1.694 1.25 2.706c0.256 1.012 0.344 2.069 0.275 3.175h-10.294c0 1.119 0.375 2.188 0.969 2.756zM27.156 15.188c-0.462-0.512-1.256-0.794-2.212-0.794-0.625 0-1.144 0.106-1.556 0.319-0.406 0.213-0.738 0.475-0.994 0.787-0.25 0.313-0.425 0.65-0.525 1.006-0.1 0.344-0.163 0.663-0.181 0.938h6.375c-0.094-1-0.438-1.738-0.906-2.256z"></path>
<path d="M20.887 8h7.981v1.944h-7.981v-1.944z"></path>
</symbol>
<symbol id="icon-linkedin2" viewBox="0 0 32 32">
<path d="M12 12h5.535v2.837h0.079c0.77-1.381 2.655-2.837 5.464-2.837 5.842 0 6.922 3.637 6.922 8.367v9.633h-5.769v-8.54c0-2.037-0.042-4.657-3.001-4.657-3.005 0-3.463 2.218-3.463 4.509v8.688h-5.767v-18z"></path>
<path d="M2 12h6v18h-6v-18z"></path>
<path d="M8 7c0 1.657-1.343 3-3 3s-3-1.343-3-3c0-1.657 1.343-3 3-3s3 1.343 3 3z"></path>
</symbol>
</defs>
</svg>
